<svg xmlns="http://www.w3.org/2000/svg" xmlns:xlink="http://www.w3.org/1999/xlink" width="153.783081" height="39.473724" viewBox="0 0 153.783 39.4737"><path d="M3.51562 6.15625Q3.09375 7.42188 2.76562 8.78125Q2.34375 10.7969 2.01562 12.8594Q1.6875 15.5781 1.35938 18.3438Q1.26562 18.4844 1.17188 18.625Q0.890625 18.5312 0.703125 18.7188Q0.65625 19.6094 0.703125 20.4531Q0.890625 20.7812 1.07812 21.1562L1.35938 21.1562Q1.45312 20.9688 1.6875 20.875Q4.6875 20.9688 7.54688 21.0625Q7.78125 21.1562 8.15625 21.25L9.98438 21.25Q10.6406 21.0156 11.2031 20.5938Q11.3438 20.0781 11.3906 19.5625Q11.25 19.2812 11.1094 19.0938Q10.7812 18.9062 10.5 18.6719Q9.84375 18.6719 9.375 19.0469Q6.84375 18.9531 4.5 18.8594Q4.35938 18.9531 4.17188 19.0469Q3.65625 18.9062 3.14062 18.9531Q3 18.8125 2.8125 18.6719Q2.8125 18.3438 2.85938 18.1094Q3.14062 17.3594 3.46875 16.7031Q4.125 13.0469 4.82812 9.48438Q5.01562 8.54688 5.39062 7.79688Q5.39062 7.23438 5.39062 6.71875Q5.15625 6.34375 4.92188 6.01562Q4.26562 5.92188 3.79688 5.73438Q3.5625 5.875 3.51562 6.15625ZM18.3281 5.96875L16.6406 5.96875Q15.6094 6.15625 14.4844 6.20312Q14.2031 6.29688 14.1797 6.57812Q14.1562 6.85938 14.3438 7.04688Q14.2969 7.28125 14.25 7.51562Q14.5781 7.9375 14.9062 8.40625Q15.9375 8.26562 17.0156 8.26562Q17.0625 8.35938 17.1562 8.45312Q17.1562 8.875 17.2031 9.29688Q17.0156 10.5156 16.6875 11.5938Q16.5469 12.4375 16.5469 13.375Q16.2656 14.1719 16.125 15.1094Q16.0312 16.7031 15.9844 18.25Q15.6562 18.625 15.2344 18.9062Q15.1406 19 15.1875 19.1406Q15.3281 19.4219 15.5625 19.7031Q15.5156 20.0312 15.6797 20.3594Q15.8438 20.6875 16.0781 21.0156Q16.875 21.0625 17.5781 21.2031Q19.0781 21.1094 20.5781 21.0156Q21.1875 20.7812 21.7969 20.3594Q21.9844 19.8906 22.2656 19.5625Q22.0781 19.1406 21.8438 18.8125Q21.2344 18.3906 20.5781 18.25Q19.7812 18.5781 18.9375 18.8594L18.5625 18.8594Q18.375 18.6719 18.2812 18.5312L18.2812 17.7812Q18.375 17.6875 18.4219 17.5469Q18.5625 15.8125 18.75 14.125Q18.8438 13.5625 19.0781 13.0938Q19.0781 10.6094 19.4062 8.3125Q19.5 8.125 19.6875 8.03125Q20.4375 7.9375 21.2812 8.03125Q21.5156 7.89062 21.8438 7.84375Q21.9844 7.28125 21.9375 6.67188Q21.5625 6.34375 21.1875 6.20312L20.7188 6.20312Q20.3906 6.0625 20.2031 5.96875Q19.5469 5.78125 18.8906 5.82812Q18.6094 5.875 18.3281 5.96875ZM28.8281 6.71875Q28.0781 7.32812 27.375 7.98438Q26.8594 8.6875 26.3906 9.34375Q26.3438 9.57812 26.3438 9.85938Q25.8281 10.8438 25.3125 11.875Q24.9375 11.9688 24.7969 12.2969Q24.7031 13.0469 24.6094 13.7969Q24.4688 14.0312 24.2812 14.2656Q24.1875 14.6875 24.0469 15.1094Q24.0469 15.9062 24.0938 16.7969Q24.2812 17.2188 24.4219 17.7812Q24.8906 18.5781 25.3594 19.4688Q25.7812 19.7031 26.0625 20.125Q27 20.6406 28.0781 21.0625Q29.0156 21.1094 29.9531 21.25Q30.6094 20.9219 31.4062 20.7344Q31.6406 20.4531 31.875 20.1719Q32.0156 20.125 32.1562 20.0781Q32.5781 19.5625 33.0469 19Q33.2344 18.9062 33.4688 18.7656Q33.4688 18.5312 33.5625 18.3906Q33.8438 18.1094 34.2188 18.0156Q34.2656 17.7344 34.4062 17.5938Q34.2656 17.4062 34.1719 17.2188Q33.8906 17.2656 33.75 17.125L33.75 16.6562Q33.6562 16.4219 33.5156 16.375Q33.1875 16.4688 32.9062 16.6562Q32.4375 17.0312 32.0625 17.4531Q31.0781 18.1094 30.1875 18.7656Q29.4375 18.9531 28.7344 19.0938Q28.0312 18.9062 27.3281 18.7188Q27 18.25 26.5781 17.9219Q26.3438 17.5 26.25 17.0781Q26.2031 16.0938 26.3906 15.25Q26.5781 14.4062 26.7656 13.5625Q27.3281 12.4375 27.8438 11.2656Q27.9844 11.0781 28.1719 10.9375Q28.1719 10.5156 28.3359 10.0703Q28.5 9.625 28.875 9.15625Q29.1562 8.96875 29.3906 8.64062Q29.9062 8.3125 30.5156 8.03125Q30.8906 7.9375 31.3125 7.9375Q31.7344 7.9375 32.0625 8.17188Q32.2031 8.45312 32.3672 8.71094Q32.5312 8.96875 32.8125 9.10938L33.4219 9.10938Q33.75 8.73438 33.9844 8.26562Q33.9844 7.70312 33.9375 7.1875Q33.6562 6.90625 33.4219 6.625Q32.9062 6.29688 32.4375 5.96875Q31.7812 5.78125 31.125 5.73438Q29.9062 6.10938 28.8281 6.71875ZM42.9844 11.3594Q42 11.8281 40.9688 12.25Q41.0156 12.4375 40.875 12.625Q40.4531 12.625 40.2188 12.4844Q39.8438 12.625 39.4688 12.7656Q38.3906 13.6094 37.5938 14.6406Q37.125 15.625 36.6094 16.6094Q36.5625 17.1719 36.4688 17.6875Q36.6562 18.1562 36.6562 18.8125Q36.8906 19.3281 37.125 19.9375Q37.4062 20.2656 37.7344 20.6406Q38.25 20.9219 38.8594 21.1562Q39.1875 21.2031 39.6094 21.1562Q40.3125 20.875 41.2031 20.7812Q41.6719 20.4531 42.2812 20.2188Q42.4219 19.9844 42.5625 19.7969Q42.8906 19.5625 43.2188 19.3281Q43.6875 18.7656 44.1094 18.1094Q44.2031 18.1094 44.3438 18.0625Q44.3906 17.6406 44.625 17.3125Q44.6719 17.2188 44.8125 17.2656Q45.1875 16.6094 45.5156 15.9531Q45.7031 14.9219 46.0781 14.0781L46.0781 12.8594Q45.7969 12.1562 45.375 11.5938Q45 11.4531 44.6719 11.3125Q43.7812 11.3594 42.9844 11.3594ZM43.2656 13.0938L43.875 13.0938Q44.0156 13.75 44.0156 14.5938Q43.6875 15.5781 43.3125 16.5625Q42.6562 17.3594 41.9531 18.1094L41.6719 18.1094Q41.5781 18.2969 41.4375 18.5781Q40.875 18.8125 40.3594 19.0469L39.2344 19.0469Q38.8594 18.8594 38.625 18.6953Q38.3906 18.5312 38.25 18.3438Q38.25 17.5 38.3438 16.7031Q39.1875 15.2969 40.0312 13.7969Q40.6406 13.6562 41.3906 13.7031Q42.2812 13.375 43.2656 13.0938ZM54.375 11.8281Q53.9531 12.4375 53.625 12.9531Q53.3438 12.5781 53.3438 12.1094Q53.0625 11.9219 52.8281 11.7344Q52.3125 11.6406 51.6562 11.8281Q51.0469 12.25 50.4375 12.6719Q50.25 12.2031 49.9219 11.7344Q49.7344 11.7344 49.5469 11.7344Q49.1719 12.3438 48.7031 12.8125Q48.6562 13 48.7031 13.2344L48.5625 13.2344Q48.1406 14.7812 47.9062 16.375Q47.6719 17.9688 47.5312 19.5625Q47.5781 19.5625 47.7188 19.6562Q47.6719 20.0312 47.9062 20.4531Q48.1875 20.5 48.375 20.7344Q48.3281 20.9219 48.5391 21.0156Q48.75 21.1094 49.0781 21.2031Q49.2188 20.8281 49.4062 20.5Q49.4062 19.6562 49.4531 18.9062Q49.7812 17.2188 50.4844 15.6719Q50.8125 15.1094 51.1875 14.6406Q51.4688 14.3594 51.75 14.1719Q51.8906 14.9688 52.0312 15.8125Q51.8438 17.6875 51.7969 19.6562Q51.7969 19.8438 52.0781 19.8438Q52.2188 20.0312 52.2188 20.3125Q52.4531 20.4062 52.5938 20.6406Q52.875 20.5 53.2031 20.6406Q53.25 20.3125 53.4844 20.3594Q53.625 19.75 53.625 19.1406Q54.0938 16.7969 54.7969 14.5938Q55.1719 13.8906 55.6406 13.1875Q55.7344 13.0938 55.875 13.1172Q56.0156 13.1406 56.1094 13.2344Q56.2031 13.8438 56.3438 14.5Q56.1094 16.7969 56.0156 19.1406Q56.1094 19.3281 56.1562 19.5625Q56.25 19.6094 56.3906 19.6094Q56.4375 20.0312 56.5781 20.4531Q56.7656 20.5 56.9531 20.6875Q57.3281 20.5938 57.6562 20.7344Q57.7969 20.5469 57.9844 20.5Q58.0781 20.2188 58.1719 19.9844Q58.1719 18.9531 58.125 18.0625Q58.125 17.3125 58.3125 16.7031Q58.3125 15.2969 58.2656 14.0312Q58.0781 13.1406 57.8906 12.3438Q57.6094 12.1094 57.5625 11.8281Q57 11.4062 56.4844 11.125L55.5 11.125Q54.9375 11.4531 54.375 11.8281ZM48.5156 13.8906Q48.5625 14.2656 48.4688 14.8281Q48.375 14.9688 48.3281 14.9219Q48.2812 14.3594 48.5156 13.8906ZM63.9844 11.1719Q63.2812 11.4062 62.7188 11.9688Q62.6719 12.2031 62.4375 12.3906Q62.1094 14.0781 61.8281 15.8125L61.8281 16.6562Q61.6406 17.5938 61.4531 18.6719Q61.3125 20.0781 61.3125 21.5312Q61.0781 22.5156 61.0312 23.5938Q61.0781 23.6406 61.125 23.7812Q60.8906 24.0156 60.9375 24.3438Q61.2656 24.4375 61.5469 24.7188Q61.6875 24.5781 61.8281 24.625Q61.8281 24.6719 61.875 24.8125Q62.0625 24.5781 62.4375 24.625Q62.5312 24.2031 62.8594 24.0625Q63 23.5469 63.1406 23.0312Q63.2812 20.7344 63.4219 18.4844Q63.5156 18.2969 63.75 18.3438Q64.4531 18.625 65.25 18.7656Q65.9531 18.5781 66.7031 18.3438Q67.3125 17.9219 67.9219 17.4531Q68.5781 16.2344 69.2344 15.0156Q69.2344 14.5 69.3281 14.0781Q69.0938 13.4688 68.8594 12.9062Q68.3438 12.2031 67.7344 11.6875Q67.2656 11.4531 66.75 11.3125Q66.2344 11.1719 65.7188 11.0781Q64.8281 11.0312 63.9844 11.1719ZM64.6406 12.6719L65.7656 12.6719Q66.1875 12.8125 66.6094 13.0469Q67.0781 13.4688 67.4531 14.0781L67.4531 14.6875Q66.9844 15.5312 66.4219 16.2344Q66.0469 16.375 65.8125 16.75Q65.4844 16.8906 65.25 17.0312Q65.0156 17.1719 64.875 17.3594Q64.3125 17.5 63.8438 17.875Q63.5625 17.9219 63.4219 17.7812Q63.5625 16.0938 63.6094 14.4531Q63.75 13.6562 63.9844 12.9062Q64.2656 12.7188 64.6406 12.6719ZM77.9062 11.3594Q76.9219 11.8281 75.8906 12.25Q75.9375 12.4375 75.7969 12.625Q75.375 12.625 75.1406 12.4844Q74.7656 12.625 74.3906 12.7656Q73.3125 13.6094 72.5156 14.6406Q72.0469 15.625 71.5312 16.6094Q71.4844 17.1719 71.3906 17.6875Q71.5781 18.1562 71.5781 18.8125Q71.8125 19.3281 72.0469 19.9375Q72.3281 20.2656 72.6562 20.6406Q73.1719 20.9219 73.7812 21.1562Q74.1094 21.2031 74.5312 21.1562Q75.2344 20.875 76.125 20.7812Q76.5938 20.4531 77.2031 20.2188Q77.3438 19.9844 77.4844 19.7969Q77.8125 19.5625 78.1406 19.3281Q78.6094 18.7656 79.0312 18.1094Q79.125 18.1094 79.2656 18.0625Q79.3125 17.6406 79.5469 17.3125Q79.5938 17.2188 79.7344 17.2656Q80.1094 16.6094 80.4375 15.9531Q80.625 14.9219 81 14.0781L81 12.8594Q80.7188 12.1562 80.2969 11.5938Q79.9219 11.4531 79.5938 11.3125Q78.7031 11.3594 77.9062 11.3594ZM78.1875 13.0938L78.7969 13.0938Q78.9375 13.75 78.9375 14.5938Q78.6094 15.5781 78.2344 16.5625Q77.5781 17.3594 76.875 18.1094L76.5938 18.1094Q76.5 18.2969 76.3594 18.5781Q75.7969 18.8125 75.2812 19.0469L74.1562 19.0469Q73.7812 18.8594 73.5469 18.6953Q73.3125 18.5312 73.1719 18.3438Q73.1719 17.5 73.2656 16.7031Q74.1094 15.2969 74.9531 13.7969Q75.5625 13.6562 76.3125 13.7031Q77.2031 13.375 78.1875 13.0938ZM84.9375 11.3594Q84.4688 11.875 84.2344 12.5312L84.2344 12.8594Q83.9531 13.375 83.7188 13.9844Q83.1562 16.3281 82.6406 18.7188L82.6406 19.3281Q82.875 19.4219 83.25 19.5156Q83.2969 19.7031 83.2969 19.9844Q83.5312 20.0781 83.625 20.3594Q83.7188 20.2188 83.9766 20.3125Q84.2344 20.4062 84.7031 20.4531Q84.8906 20.125 85.2656 19.9375Q85.4531 17.9688 85.875 16.1406Q86.1562 15.3906 86.5781 14.6875Q86.9062 14.3125 87.2344 13.9844Q87.8438 13.5625 88.4531 13.2344Q88.7344 13.1875 89.0625 13.1875Q89.2031 13.2344 89.25 13.4219Q89.0156 14.875 88.9219 16.4688Q88.6406 17.8281 88.4062 19.2812Q88.5 19.6562 88.7344 19.9844Q89.2969 20.5938 90 21.1094Q90.75 21.1562 91.5469 21.1094Q91.9219 20.8281 92.3906 20.5938Q92.8125 19.7031 93.0938 18.8594Q92.8594 18.625 92.8125 18.25Q92.625 18.1562 92.4844 18.0625Q92.1094 18.0625 91.8281 18.3438Q91.5469 18.3906 91.3594 18.25Q91.4062 17.0312 91.5 15.8594Q91.6875 14.875 91.8281 13.8438Q91.7344 13.0469 91.6406 12.3438Q91.4531 12.2031 91.4062 12.0156Q90.7969 11.5469 90.0938 11.3125Q89.0156 11.2656 88.0781 11.4062Q87.4688 11.6406 86.9062 11.9688L86.5312 11.9688Q86.2969 11.6406 86.0625 11.4062Q85.5 11.2188 84.9375 11.3594ZM99.9375 11.3594Q99.8906 11.4531 99.7969 11.5469L99.2344 11.5469Q98.5312 12.0625 97.7344 12.3906Q97.2656 12.8594 96.7969 13.2812L96.5625 13.2812Q96.1406 13.9844 95.7188 14.6875Q95.4844 15.7656 95.2031 16.7969Q95.3438 17.6406 95.4844 18.625Q95.9531 19.1406 96.4688 19.75Q97.1719 20.3125 97.875 20.875Q98.6719 21.2031 99.5156 21.3906Q100.359 21.3438 101.203 21.25Q101.859 20.8281 102.656 20.5469Q103.312 19.8906 104.156 19.4219Q104.297 19 104.25 18.625Q104.297 18.4375 104.484 18.4375Q104.344 18.1562 104.062 18.1562Q103.922 17.875 104.016 17.7344Q103.641 17.7812 103.312 17.6406Q102.656 17.9688 102.188 18.4375Q101.203 18.8125 100.359 19.2812Q99.8906 19.3281 99.4922 19.2578Q99.0938 19.1875 98.7656 19Q98.4375 18.8125 98.4375 18.5312Q99.4219 18.1094 100.359 17.6406Q100.828 17.2188 101.438 16.9375Q101.625 16.6562 101.883 16.3984Q102.141 16.1406 102.516 15.9062Q103.312 14.875 104.062 13.75Q103.969 13.2812 104.156 13.0469Q103.875 12.5781 103.594 12.2031Q103.312 11.8281 103.078 11.5938Q102.328 11.3125 101.578 11.1719Q100.688 11.1719 99.9375 11.3594ZM99 17.7812L99.2812 17.7812Q99.3281 17.8281 99.3281 17.9688Q99.1875 18.0625 99.0234 17.9922Q98.8594 17.9219 99 17.7812ZM99.2812 15.9062Q99.4688 15.8125 99.5156 16Q99.4219 16.1875 99.2344 16.2344Q99.0938 16.0469 99.2812 15.9062ZM100.875 13.0938L101.531 13.0938Q101.672 13.3281 101.531 13.6562Q101.062 14.0781 100.734 14.5469Q99.4219 15.6719 98.1094 16.6094L97.8281 16.6094Q97.7344 16.2344 97.875 15.7656Q98.2969 14.8281 98.8594 14.0312Q99.375 13.75 99.8438 13.4219Q100.359 13.2812 100.875 13.0938ZM108.422 11.3594Q107.953 11.875 107.719 12.5312L107.719 12.8594Q107.438 13.375 107.203 13.9844Q106.641 16.3281 106.125 18.7188L106.125 19.3281Q106.359 19.4219 106.734 19.5156Q106.781 19.7031 106.781 19.9844Q107.016 20.0781 107.109 20.3594Q107.203 20.2188 107.461 20.3125Q107.719 20.4062 108.188 20.4531Q108.375 20.125 108.75 19.9375Q108.938 17.9688 109.359 16.1406Q109.641 15.3906 110.062 14.6875Q110.391 14.3125 110.719 13.9844Q111.328 13.5625 111.938 13.2344Q112.219 13.1875 112.547 13.1875Q112.688 13.2344 112.734 13.4219Q112.5 14.875 112.406 16.4688Q112.125 17.8281 111.891 19.2812Q111.984 19.6562 112.219 19.9844Q112.781 20.5938 113.484 21.1094Q114.234 21.1562 115.031 21.1094Q115.406 20.8281 115.875 20.5938Q116.297 19.7031 116.578 18.8594Q116.344 18.625 116.297 18.25Q116.109 18.1562 115.969 18.0625Q115.594 18.0625 115.312 18.3438Q115.031 18.3906 114.844 18.25Q114.891 17.0312 114.984 15.8594Q115.172 14.875 115.312 13.8438Q115.219 13.0469 115.125 12.3438Q114.938 12.2031 114.891 12.0156Q114.281 11.5469 113.578 11.3125Q112.5 11.2656 111.562 11.4062Q110.953 11.6406 110.391 11.9688L110.016 11.9688Q109.781 11.6406 109.547 11.4062Q108.984 11.2188 108.422 11.3594ZM124.312 7.89062Q124.078 7.89062 123.938 7.70312Q123.656 8.03125 123.328 8.35938Q123.047 8.82812 122.812 9.39062Q122.438 10.5156 122.016 11.6875Q120.75 11.9688 119.344 12.0625Q118.875 12.25 118.5 12.4844L118.172 12.4844Q117.984 12.7188 117.703 12.8125Q117.938 13.0469 118.266 13.4688Q118.5 13.5156 118.734 13.5859Q118.969 13.6562 119.016 13.9375Q119.016 13.7969 119.156 13.7969Q120.094 13.6094 121.078 13.5625L121.172 13.6562Q120.75 14.875 120.422 16.1406Q120.188 17.2188 120.141 18.4375Q120.469 19.1406 120.797 20.0312Q121.031 20.3594 121.477 20.7578Q121.922 21.1562 122.578 21.3906Q123.141 21.3438 123.656 21.3906Q124.266 21.1094 124.922 20.875L124.922 20.6875Q125.156 20.5 125.344 20.2422Q125.531 19.9844 125.625 19.6562Q125.672 19.0938 125.672 18.625Q125.391 18.5781 125.391 18.3438Q124.453 19 123.375 19.5625L122.859 19.5625Q122.672 19.375 122.438 19.3281Q122.25 19.0469 122.156 18.7656Q122.156 18.1562 122.203 17.5938Q122.578 15.9531 122.859 14.3125Q123.141 13.8438 123.234 13.2812Q123.328 13.1406 123.516 13.0938Q125.672 12.8125 127.734 12.3438Q127.922 12.0625 128.25 11.9688Q128.203 11.6875 128.344 11.4062Q128.156 11.3125 128.203 11.1719Q127.875 11.0312 127.594 10.9375Q127.312 10.8438 127.078 10.8438Q125.766 10.9844 124.594 11.3125Q124.125 11.4062 123.797 11.2656Q123.938 10.8438 123.891 10.4688Q124.312 9.57812 124.641 8.64062Q124.547 8.3125 124.5 7.9375Q124.594 7.79688 124.688 7.65625Q124.453 7.70312 124.312 7.89062ZM135.188 11.4531Q133.922 12.1094 132.75 13.0938Q132.703 13.1875 132.844 13.2812Q132.703 13.4688 132.609 13.75Q132.75 13.9375 132.984 14.125Q132.984 14.4062 133.031 14.7344Q132.844 14.8281 132.891 15.0625Q132.984 15.0625 133.125 15.0625Q133.266 15.0625 133.406 15.25Q133.359 15.3438 133.266 15.4375Q133.359 15.5312 133.547 15.4375Q133.641 15.5312 133.594 15.7188Q134.109 15.8125 134.578 16.1875Q135.234 16.75 136.031 17.1719Q136.359 17.5 136.781 17.875Q136.922 18.2969 136.781 18.7188Q136.594 18.7188 136.453 18.7188Q136.219 18.9062 135.984 19.0938Q135.375 19.2344 134.766 19.2812Q134.672 19.375 134.578 19.5156Q134.156 19.4219 133.781 19.4688Q133.547 19.1875 133.406 19.0469Q133.125 18.2031 132.891 17.5469Q132.844 17.7812 132.656 17.6641Q132.469 17.5469 132.469 17.3594Q132.234 17.1719 132.047 17.125Q131.953 17.2656 131.812 17.3594Q131.625 17.2656 131.578 17.2188Q131.391 17.3125 131.25 17.5469Q131.25 18.5312 131.578 19.5156Q131.859 19.7969 132 20.2188Q131.953 20.3594 132 20.5938Q132.422 20.7812 132.797 21.1562Q133.406 21.2969 134.062 21.4844L135.234 21.4844Q136.453 21.3438 137.672 21.0625Q138.047 20.6875 138.562 20.4062Q138.891 19.75 139.172 19.0469Q139.125 18.3906 139.125 17.875Q138.938 17.4531 138.797 17.125Q138.188 16.4688 137.484 15.9062Q136.266 15.25 135.188 14.4531Q134.859 14.125 134.766 13.7969Q135 13.6094 135.188 13.375Q135.516 13.2812 135.891 13.1875Q136.266 13.0938 136.688 13.1406Q136.922 13.6094 136.969 14.2656Q136.781 14.3594 136.875 14.5Q137.203 14.4531 137.484 14.3125L137.625 14.4531Q137.531 14.1719 137.766 14.0312Q138 13.8906 138.281 13.8438Q138.469 13.0938 138.516 12.2969Q138.281 11.875 138.141 11.5Q137.484 11.0781 136.828 11.125Q135.938 11.1719 135.188 11.4531Z" fill="#43ABFF" fill-opacity="1.000000" transform="matrix(1 0 0 1 6.23685 6.23686)"/></svg>